<svg width="82" height="81" viewBox="0 0 82 81" fill="none" xmlns="http://www.w3.org/2000/svg">
<path d="M41 81C35.465 81 30.2337 79.9369 25.3062 77.8106C20.3787 75.6844 16.0756 72.7819 12.3969 69.1031C8.71813 65.4244 5.81563 61.1213 3.68937 56.1937C1.56313 51.2663 0.5 46.035 0.5 40.5C0.5 34.7625 1.58 29.43 3.74 24.5025C5.9 19.575 8.85312 15.2887 12.5994 11.6438C16.3456 7.99875 20.7331 5.14687 25.7619 3.08812C30.7906 1.02937 36.1738 0 41.9113 0C47.2438 0 52.3063 0.894375 57.0988 2.68313C61.8913 4.47187 66.0931 6.9525 69.7044 10.125C73.3156 13.2975 76.1844 17.0606 78.3106 21.4144C80.4369 25.7681 81.5 30.5438 81.5 35.7412C81.5 43.0312 79.3737 48.7856 75.1213 53.0044C70.8688 57.2231 65.2325 59.3325 58.2125 59.3325H50.6188C49.4038 59.3325 48.3575 59.805 47.48 60.75C46.6025 61.695 46.1637 62.7412 46.1637 63.8888C46.1637 65.7113 46.6531 67.2637 47.6319 68.5462C48.6106 69.8288 49.1 71.3138 49.1 73.0013C49.1 75.5663 48.3913 77.5406 46.9738 78.9244C45.5563 80.3081 43.565 81 41 81ZM17.4088 43.1325C18.7588 43.1325 19.94 42.6263 20.9525 41.6138C21.965 40.6012 22.4713 39.42 22.4713 38.07C22.4713 36.72 21.965 35.5387 20.9525 34.5262C19.94 33.5138 18.7588 33.0075 17.4088 33.0075C16.0588 33.0075 14.8775 33.5138 13.865 34.5262C12.8525 35.5387 12.3462 36.72 12.3462 38.07C12.3462 39.42 12.8525 40.6012 13.865 41.6138C14.8775 42.6263 16.0588 43.1325 17.4088 43.1325ZM30.1663 25.92C31.5163 25.92 32.6975 25.4137 33.71 24.4013C34.7225 23.3888 35.2287 22.2075 35.2287 20.8575C35.2287 19.5075 34.7225 18.3263 33.71 17.3137C32.6975 16.3013 31.5163 15.795 30.1663 15.795C28.8162 15.795 27.635 16.3013 26.6225 17.3137C25.61 18.3263 25.1038 19.5075 25.1038 20.8575C25.1038 22.2075 25.61 23.3888 26.6225 24.4013C27.635 25.4137 28.8162 25.92 30.1663 25.92ZM51.8338 25.92C53.1838 25.92 54.365 25.4137 55.3775 24.4013C56.39 23.3888 56.8963 22.2075 56.8963 20.8575C56.8963 19.5075 56.39 18.3263 55.3775 17.3137C54.365 16.3013 53.1838 15.795 51.8338 15.795C50.4837 15.795 49.3025 16.3013 48.29 17.3137C47.2775 18.3263 46.7713 19.5075 46.7713 20.8575C46.7713 22.2075 47.2775 23.3888 48.29 24.4013C49.3025 25.4137 50.4837 25.92 51.8338 25.92ZM65.0975 43.1325C66.4475 43.1325 67.6288 42.6263 68.6413 41.6138C69.6537 40.6012 70.16 39.42 70.16 38.07C70.16 36.72 69.6537 35.5387 68.6413 34.5262C67.6288 33.5138 66.4475 33.0075 65.0975 33.0075C63.7475 33.0075 62.5662 33.5138 61.5537 34.5262C60.5412 35.5387 60.035 36.72 60.035 38.07C60.035 39.42 60.5412 40.6012 61.5537 41.6138C62.5662 42.6263 63.7475 43.1325 65.0975 43.1325ZM41 74.925C41.7425 74.925 42.2656 74.7731 42.5694 74.4694C42.8731 74.1656 43.025 73.6762 43.025 73.0013C43.025 72.0563 42.5356 71.1787 41.5569 70.3688C40.5781 69.5588 40.0887 67.77 40.0887 65.0025C40.0887 61.8975 41.1012 59.1637 43.1263 56.8013C45.1512 54.4388 47.7163 53.2575 50.8213 53.2575H58.2125C63.3425 53.2575 67.4938 51.7556 70.6663 48.7519C73.8388 45.7481 75.425 41.4113 75.425 35.7412C75.425 26.8312 72.05 19.6594 65.3 14.2256C58.55 8.79187 50.7537 6.075 41.9113 6.075C32.0562 6.075 23.7031 9.39937 16.8519 16.0481C10.0006 22.6969 6.575 30.8475 6.575 40.5C6.575 50.0175 9.93312 58.1344 16.6494 64.8506C23.3656 71.5669 31.4825 74.925 41 74.925Z" fill="#73B941"/>
</svg>
