<svg width="112" height="81" viewBox="0 0 112 81" fill="none" xmlns="http://www.w3.org/2000/svg">
<path d="M23.5642 81C19.4134 81 15.8803 79.5458 12.9648 76.6373C10.0493 73.7289 8.59154 70.1972 8.59154 66.0423H0.225342V7.60563C0.225342 5.57746 0.985905 3.80282 2.50703 2.28169C4.02816 0.760563 5.80281 0 7.83098 0H81.2253V21.169H94.5352L111.775 44.1127V66.0423H102.775C102.775 70.1972 101.322 73.7289 98.4164 76.6373C95.5107 79.5458 91.9826 81 87.8318 81C83.681 81 80.1479 79.5458 77.2324 76.6373C74.3169 73.7289 72.8591 70.1972 72.8591 66.0423H38.507C38.507 70.1831 37.0543 73.7113 34.1488 76.6268C31.2431 79.5423 27.715 81 23.5642 81ZM23.5493 73.3944C25.5775 73.3944 27.3098 72.6761 28.7465 71.2394C30.1831 69.8028 30.9014 68.0704 30.9014 66.0423C30.9014 64.0141 30.1831 62.2817 28.7465 60.8451C27.3098 59.4084 25.5775 58.6901 23.5493 58.6901C21.5211 58.6901 19.7887 59.4084 18.3521 60.8451C16.9155 62.2817 16.1972 64.0141 16.1972 66.0423C16.1972 68.0704 16.9155 69.8028 18.3521 71.2394C19.7887 72.6761 21.5211 73.3944 23.5493 73.3944ZM7.83098 58.4366H10.6197C12.0563 56.1549 13.875 54.338 16.0756 52.9859C18.2763 51.6338 20.727 50.9577 23.4277 50.9577C26.1285 50.9577 28.5986 51.6549 30.838 53.0493C33.0775 54.4437 34.9155 56.2394 36.3521 58.4366H73.6197V7.60563H7.83098V58.4366ZM87.8169 73.3944C89.8451 73.3944 91.5775 72.6761 93.0141 71.2394C94.4507 69.8028 95.169 68.0704 95.169 66.0423C95.169 64.0141 94.4507 62.2817 93.0141 60.8451C91.5775 59.4084 89.8451 58.6901 87.8169 58.6901C85.7887 58.6901 84.0563 59.4084 82.6197 60.8451C81.1831 62.2817 80.4648 64.0141 80.4648 66.0423C80.4648 68.0704 81.1831 69.8028 82.6197 71.2394C84.0563 72.6761 85.7887 73.3944 87.8169 73.3944ZM81.2253 47.5352H104.803L90.7324 28.7746H81.2253V47.5352Z" fill="#73B941"/>
</svg>
