<svg width="58" height="81" viewBox="0 0 58 81" fill="none" xmlns="http://www.w3.org/2000/svg">
<path d="M26.4876 75.2717C24.5446 69.6439 22.1997 65.4063 19.4528 62.5589C16.7059 59.7115 12.4851 57.3164 6.7903 55.3734C7.05829 58.5893 7.66127 61.42 8.59924 63.8654C9.5372 66.3108 10.7432 68.2705 12.2171 69.7444C13.3561 70.8834 14.4448 71.7711 15.4832 72.4076C16.5217 73.044 17.6104 73.5633 18.7494 73.9653C19.8883 74.3672 21.0943 74.652 22.3672 74.8195C23.6402 74.987 25.0136 75.1377 26.4876 75.2717ZM31.5124 75.2717C38.0111 74.6687 42.8015 72.8263 45.8834 69.7444C48.9652 66.6625 50.8077 61.8722 51.4107 55.3734C48.5298 56.3784 46.0173 57.4839 43.8734 58.6898C41.7295 59.8958 39.9876 61.1687 38.6476 62.5087C37.6427 63.5136 36.7884 64.5019 36.085 65.4733C35.3815 66.4448 34.7618 67.433 34.2258 68.438C33.6898 69.4429 33.2208 70.4981 32.8188 71.6036C32.4169 72.7091 31.9814 73.9318 31.5124 75.2717ZM29 38.7916C34.0248 38.7916 38.2959 37.0329 41.8133 33.5155C45.3306 29.9981 47.0893 25.727 47.0893 20.7022V11.5571L38.3461 18.9938L29 7.73821L19.6538 18.9938L10.9107 11.5571V20.7022C10.9107 25.727 12.6693 29.9981 16.1867 33.5155C19.7041 37.0329 23.9752 38.7916 29 38.7916ZM24.9801 81C18.2804 81 12.5856 78.6551 7.89576 73.9653C3.20594 69.2754 0.861023 63.5806 0.861023 56.8809V48.8412C5.61785 48.7742 10.1067 49.7457 14.3275 51.7556C18.5484 53.7655 22.0992 56.4789 24.9801 59.8958V44.6119C19.2183 43.6796 14.428 40.9758 10.6092 36.5005C6.7903 32.0252 4.88087 26.7591 4.88087 20.7022V4.92432C4.88087 3.59006 5.48385 2.65354 6.68981 2.11475C7.89576 1.57589 8.96772 1.74194 9.90569 2.6129L18.9504 10.4516L26.6886 1.10546C27.2835 0.368486 28.052 0 28.994 0C29.9359 0 30.7084 0.368486 31.3114 1.10546L39.0496 10.4516L48.0943 2.6129C49.0322 1.74194 50.1042 1.57589 51.3102 2.11475C52.5161 2.65354 53.1191 3.59006 53.1191 4.92432V20.7022C53.1191 26.7575 51.2097 32.0221 47.3908 36.4962C43.5719 40.9704 38.7816 43.6784 33.0198 44.6203V59.8958C35.9007 56.4789 39.4516 53.7659 43.6724 51.7568C47.8933 49.7476 52.3821 48.7757 57.1389 48.8412V56.8809C57.1389 63.5806 54.794 69.2754 50.1042 73.9653C45.4144 78.6551 39.7196 81 33.0198 81H24.9801Z" fill="#73B941"/>
</svg>
