<svg width="104" height="87" viewBox="0 0 104 87" fill="none" xmlns="http://www.w3.org/2000/svg">
<g id="Frame 62">
<g id="Group">
<g id="Group_2">
<path id="Vector" d="M7.77875 69.5004L25.0447 44.8537L52.9687 58.7618L68.1177 26.2386L98.7207 47.87" stroke="#F05454" stroke-width="3" stroke-linecap="round"/>
<path id="Vector_2" fill-rule="evenodd" clip-rule="evenodd" d="M30.3468 45.6456C30.3556 46.2245 30.248 46.7994 30.03 47.3368C29.8121 47.8742 29.4883 48.3634 29.0773 48.7759C28.6664 49.1884 28.1766 49.516 27.6364 49.7397C27.0962 49.9633 26.5164 50.0785 25.9308 50.0786C25.3451 50.0786 24.7653 49.9636 24.2251 49.7401C23.6848 49.5165 23.195 49.189 22.7839 48.7766C22.3729 48.3642 22.0489 47.8751 21.8309 47.3377C21.6128 46.8004 21.505 46.2255 21.5138 45.6466C21.5311 44.4999 22.0039 43.406 22.8302 42.6012C23.6565 41.7963 24.7698 41.3451 25.9298 41.345C27.0897 41.3448 28.2032 41.7958 29.0296 42.6005C29.8561 43.4052 30.3292 44.4989 30.3468 45.6456ZM56.5428 57.6624C56.5517 58.2414 56.4441 58.8163 56.2262 59.3537C56.0084 59.8911 55.6846 60.3803 55.2737 60.7929C54.8628 61.2055 54.373 61.5331 53.8328 61.7568C53.2927 61.9805 52.7129 62.0958 52.1273 62.0959C51.5416 62.0961 50.9618 61.9811 50.4216 61.7576C49.8813 61.5341 49.3914 61.2067 48.9803 60.7943C48.5692 60.3819 48.2452 59.8929 48.0271 59.3555C47.8089 58.8182 47.7011 58.2434 47.7098 57.6644C47.727 56.5178 48.1997 55.4238 49.0259 54.6189C49.852 53.8139 50.9653 53.3626 52.1253 53.3623C53.2852 53.3621 54.3987 53.8129 55.2253 54.6175C56.0518 55.4221 56.5251 56.5158 56.5428 57.6624ZM101.739 46.3604C101.739 47.5186 101.273 48.6295 100.445 49.4485C99.6165 50.2675 98.4929 50.7277 97.3213 50.7277C96.1497 50.7277 95.0261 50.2675 94.1976 49.4485C93.3692 48.6295 92.9038 47.5186 92.9038 46.3604C92.9038 45.2021 93.3692 44.0912 94.1976 43.2722C95.0261 42.4532 96.1497 41.9931 97.3213 41.9931C98.4929 41.9931 99.6165 42.4532 100.445 43.2722C101.273 44.0912 101.739 45.2021 101.739 46.3604ZM72.5348 26.2377C72.5348 26.8111 72.4205 27.379 72.1985 27.9088C71.9766 28.4386 71.6512 28.92 71.2411 29.3255C70.8309 29.7309 70.344 30.0526 69.8081 30.2721C69.2722 30.4915 68.6978 30.6045 68.1178 30.6045C67.5377 30.6045 66.9633 30.4915 66.4274 30.2721C65.8915 30.0526 65.4046 29.7309 64.9945 29.3255C64.5843 28.92 64.259 28.4386 64.037 27.9088C63.815 27.379 63.7008 26.8111 63.7008 26.2377C63.7008 25.0795 64.1661 23.9688 64.9945 23.1499C65.8228 22.3309 66.9463 21.8708 68.1178 21.8708C69.2892 21.8708 70.4127 22.3309 71.2411 23.1499C72.0694 23.9688 72.5348 25.0795 72.5348 26.2377ZM11.0948 69.7871C11.1036 70.366 10.9958 70.9409 10.7779 71.4783C10.5599 72.0156 10.2359 72.5048 9.82496 72.9173C9.41398 73.3297 8.92413 73.6573 8.38391 73.8809C7.8437 74.1045 7.2639 74.2196 6.67826 74.2196C6.09262 74.2196 5.51283 74.1045 4.97261 73.8809C4.43239 73.6573 3.94255 73.3297 3.53156 72.9173C3.12058 72.5048 2.79667 72.0156 2.57867 71.4783C2.36068 70.9409 2.25295 70.366 2.26176 69.7871C2.27921 68.6404 2.7522 67.5466 3.57856 66.7418C4.40491 65.9371 5.51831 65.486 6.67826 65.486C7.83821 65.486 8.95161 65.9371 9.77797 66.7418C10.6043 67.5466 11.0773 68.6404 11.0948 69.7871Z" fill="#30475E" stroke="#F05454" stroke-width="3"/>
</g>
<g id="Group_3">
<path id="Vector_3" d="M29.0178 63.3758L46.2838 38.7291L74.2078 52.6362L89.3568 20.113" stroke="#5B9DFF" stroke-width="3" stroke-linecap="round"/>
<path id="Vector_4" fill-rule="evenodd" clip-rule="evenodd" d="M50.7008 40.3959C50.7096 40.9748 50.602 41.5497 50.3841 42.0871C50.1661 42.6245 49.8423 43.1137 49.4313 43.5262C49.0204 43.9387 48.5306 44.2663 47.9904 44.49C47.4502 44.7136 46.8704 44.8288 46.2848 44.8289C45.6991 44.829 45.1193 44.7139 44.5791 44.4904C44.0388 44.2668 43.549 43.9393 43.1379 43.5269C42.7269 43.1145 42.4029 42.6254 42.1849 42.088C41.9668 41.5507 41.859 40.9758 41.8678 40.3969C41.8852 39.2502 42.3582 38.1564 43.1846 37.3516C44.0109 36.5469 45.1243 36.0958 46.2843 36.0958C47.4442 36.0958 48.5576 36.5469 49.384 37.3516C50.2103 38.1564 50.6833 39.2492 50.7008 40.3959ZM77.7818 50.6639C77.7906 51.2428 77.6829 51.8177 77.4649 52.355C77.2469 52.8924 76.923 53.3816 76.512 53.794C76.101 54.2065 75.6111 54.5341 75.0709 54.7577C74.5307 54.9812 73.9509 55.0964 73.3653 55.0964C72.7796 55.0964 72.1998 54.9812 71.6596 54.7577C71.1194 54.5341 70.6296 54.2065 70.2186 53.794C69.8076 53.3816 69.4837 52.8924 69.2657 52.355C69.0477 51.8177 68.94 51.2428 68.9488 50.6639C68.9662 49.5172 69.4392 48.4234 70.2656 47.6186C71.0919 46.8139 72.2053 46.3628 73.3653 46.3628C74.5252 46.3628 75.6386 46.8139 76.465 47.6186C77.2913 48.4234 77.7643 49.5172 77.7818 50.6639ZM93.7738 20.113C93.7738 21.2712 93.3084 22.3819 92.4801 23.2008C91.6517 24.0198 90.5282 24.4798 89.3568 24.4798C88.1853 24.4798 87.0618 24.0198 86.2335 23.2008C85.4051 22.3819 84.9398 21.2712 84.9398 20.113C84.9398 18.9549 85.4051 17.8442 86.2335 17.0252C87.0618 16.2063 88.1853 15.7462 89.3568 15.7462C90.5282 15.7462 91.6517 16.2063 92.4801 17.0252C93.3084 17.8442 93.7738 18.9549 93.7738 20.113ZM32.3338 63.6625C32.3426 64.2414 32.235 64.8163 32.0171 65.3537C31.7991 65.8911 31.4753 66.3803 31.0643 66.7928C30.6534 67.2053 30.1636 67.5329 29.6234 67.7565C29.0832 67.9802 28.5034 68.0954 27.9178 68.0955C27.3321 68.0955 26.7523 67.9804 26.2121 67.7569C25.6718 67.5334 25.182 67.2059 24.7709 66.7935C24.3599 66.3811 24.0359 65.8919 23.8179 65.3546C23.5998 64.8172 23.492 64.2424 23.5008 63.6634C23.5181 62.5168 23.9909 61.4229 24.8172 60.6181C25.6435 59.8132 26.7568 59.362 27.9168 59.3618C29.0767 59.3617 30.1902 59.8127 31.0166 60.6174C31.8431 61.422 32.3162 62.5158 32.3338 63.6625Z" fill="#30475E" stroke="#5B9DFF" stroke-width="3"/>
</g>
</g>
</g>
</svg>
