<svg width="104" height="82" viewBox="0 0 104 82" fill="none" xmlns="http://www.w3.org/2000/svg">
<g clip-path="url(#clip0_110_1095)">
<path d="M86.394 59.4115C79.692 71.2965 66.974 79.3185 52.386 79.3185C35.186 79.3185 20.583 68.1635 15.38 52.6735M29.534 51.4955L17.416 37.1675C16.9784 36.7306 16.3853 36.4853 15.767 36.4853C15.1487 36.4853 14.5556 36.7306 14.118 37.1675L2 51.4955H29.103" stroke="#F05F60" stroke-width="4" stroke-linecap="round"/>
<path d="M17.436 22.2195C24.138 10.3345 36.856 2.3125 51.444 2.3125C68.644 2.3125 83.247 13.4675 88.451 28.9565M74.296 30.1355L86.415 44.4625C87.321 45.3725 88.805 45.3725 89.712 44.4625L101.831 30.1355M101.83 30.1355H74.727" stroke="#5B9DFF" stroke-width="4" stroke-linecap="round"/>
</g>
<defs>
<clipPath id="clip0_110_1095">
<rect width="104" height="81" fill="white" transform="translate(0 0.3125)"/>
</clipPath>
</defs>
</svg>
