<svg width="58" height="88" viewBox="0 0 58 88" fill="none" xmlns="http://www.w3.org/2000/svg">
<path fill-rule="evenodd" clip-rule="evenodd" d="M44.842 15.8675C44.8412 13.0304 43.7665 10.2987 41.834 8.22152V22.7215H38.824V5.89452C37.4264 5.15625 35.8883 4.72239 34.311 4.62152V22.6385H31.3V4.58252H26.786V22.6385H23.78V4.62152C22.159 4.72952 20.63 5.17152 19.266 5.89452V22.7225H16.256V8.22252C14.3237 10.2998 13.249 13.0314 13.248 15.8685V27.1525H44.843L44.842 15.8675Z" fill="#30475E"/>
<path fill-rule="evenodd" clip-rule="evenodd" d="M44.842 15.8675C44.8412 13.0304 43.7665 10.2987 41.834 8.22152V22.7215H38.824V5.89452C37.4264 5.15625 35.8883 4.72239 34.311 4.62152V22.6385H31.3V4.58252H26.786V22.6385H23.78V4.62152C22.159 4.72952 20.63 5.17152 19.266 5.89452V22.7225H16.256V8.22252C14.3237 10.2998 13.249 13.0314 13.248 15.8685V27.1525H44.843L44.842 15.8675Z" stroke="#598EA9"/>
<path fill-rule="evenodd" clip-rule="evenodd" d="M29.0449 61.7565C37.7549 61.7565 44.8419 54.6695 44.8419 45.9585V30.1605H13.2469V45.9585C13.2469 54.6695 20.3339 61.7565 29.0449 61.7565Z" fill="#30475E"/>
<path fill-rule="evenodd" clip-rule="evenodd" d="M29.0449 61.7565C37.7549 61.7565 44.8419 54.6695 44.8419 45.9585V30.1605H13.2469V45.9585C13.2469 54.6695 20.3339 61.7565 29.0449 61.7565Z" stroke="#598EA9"/>
<path fill-rule="evenodd" clip-rule="evenodd" d="M13.247 30.1605H44.8419V45.9585C44.8419 54.6695 37.756 61.7565 29.045 61.7565C20.334 61.7565 13.247 54.6695 13.247 45.9585V30.1605ZM13.247 15.8675C13.247 12.9165 14.395 10.2345 16.255 8.22151V22.7215H19.265V5.89351C20.663 5.15564 22.2014 4.72181 23.779 4.62051V22.6375H26.787V4.58251H31.302V22.6365H34.311V4.62051C35.931 4.72851 37.461 5.17151 38.824 5.89351V22.7225H41.834V8.22251C43.7663 10.2998 44.8409 13.0314 44.8419 15.8685V27.1525H13.247V15.8675ZM29.045 64.7645C39.415 64.7645 47.851 56.3285 47.851 45.9585V15.8675C47.851 8.23851 41.841 2.00651 34.311 1.61251V1.57251H23.779V1.61251C16.249 2.00651 10.239 8.23851 10.239 15.8675V45.9585C10.239 56.3285 18.674 64.7645 29.045 64.7645Z" fill="#5B9DFF"/>
<path fill-rule="evenodd" clip-rule="evenodd" d="M13.247 30.1605H44.8419V45.9585C44.8419 54.6695 37.756 61.7565 29.045 61.7565C20.334 61.7565 13.247 54.6695 13.247 45.9585V30.1605ZM13.247 15.8675C13.247 12.9165 14.395 10.2345 16.255 8.22151V22.7215H19.265V5.89351C20.663 5.15564 22.2014 4.72181 23.779 4.62051V22.6375H26.787V4.58251H31.302V22.6365H34.311V4.62051C35.931 4.72851 37.461 5.17151 38.824 5.89351V22.7225H41.834V8.22251C43.7663 10.2998 44.8409 13.0314 44.8419 15.8685V27.1525H13.247V15.8675ZM29.045 64.7645C39.415 64.7645 47.851 56.3285 47.851 45.9585V15.8675C47.851 8.23851 41.841 2.00651 34.311 1.61251V1.57251H23.779V1.61251C16.249 2.00651 10.239 8.23851 10.239 15.8675V45.9585C10.239 56.3285 18.674 64.7645 29.045 64.7645Z" stroke="#5B9DFF"/>
<path fill-rule="evenodd" clip-rule="evenodd" d="M56.127 46.3345C56.1321 46.1337 56.0971 45.9338 56.0238 45.7468C55.9505 45.5597 55.8405 45.3892 55.7003 45.2453C55.5601 45.1014 55.3925 44.9871 55.2074 44.909C55.0222 44.8309 54.8234 44.7907 54.6225 44.7907C54.4216 44.7907 54.2227 44.8309 54.0376 44.909C53.8525 44.9871 53.6849 45.1014 53.5447 45.2453C53.4044 45.3892 53.2944 45.5597 53.2212 45.7468C53.1479 45.9338 53.1128 46.1337 53.118 46.3345C53.118 59.6085 42.318 70.4075 29.044 70.4075C15.771 70.4075 4.97198 59.6075 4.97198 46.3345C4.97198 45.9353 4.81341 45.5525 4.53117 45.2703C4.24893 44.9881 3.86613 44.8295 3.46698 44.8295C3.06782 44.8295 2.68502 44.9881 2.40278 45.2703C2.12054 45.5525 1.96198 45.9353 1.96198 46.3345C1.96198 59.4645 11.359 70.4345 23.779 72.8945V85.8295H26.789V73.3025C27.534 73.3645 28.283 73.4165 29.044 73.4165C29.806 73.4165 30.555 73.3645 31.302 73.3025V85.8295H34.31V72.8925C46.731 70.4345 56.127 59.4635 56.127 46.3345Z" fill="#F05F60"/>
<path fill-rule="evenodd" clip-rule="evenodd" d="M56.127 46.3345C56.1322 46.1337 56.0971 45.9338 56.0238 45.7468C55.9505 45.5597 55.8405 45.3892 55.7003 45.2453C55.5601 45.1014 55.3925 44.9871 55.2074 44.909C55.0222 44.8309 54.8234 44.7907 54.6225 44.7907C54.4216 44.7907 54.2227 44.8309 54.0376 44.909C53.8525 44.9871 53.6849 45.1014 53.5447 45.2453C53.4044 45.3892 53.2944 45.5597 53.2212 45.7468C53.1479 45.9338 53.1128 46.1337 53.118 46.3345C53.118 59.6085 42.318 70.4075 29.044 70.4075C15.771 70.4075 4.97198 59.6075 4.97198 46.3345C4.97198 45.9353 4.81341 45.5525 4.53117 45.2703C4.24893 44.9881 3.86613 44.8295 3.46698 44.8295C3.06782 44.8295 2.68502 44.9881 2.40278 45.2703C2.12054 45.5525 1.96198 45.9353 1.96198 46.3345C1.96198 59.4645 11.359 70.4345 23.779 72.8945V85.8295H26.789V73.3025C27.534 73.3645 28.283 73.4165 29.044 73.4165C29.806 73.4165 30.555 73.3645 31.302 73.3025V85.8295H34.31V72.8925C46.731 70.4345 56.127 59.4635 56.127 46.3345Z" stroke="#F05F60"/>
<path fill-rule="evenodd" clip-rule="evenodd" d="M13.242 38.5325H44.852V35.4945H13.242V38.5325Z" fill="#5B9DFF"/>
<path fill-rule="evenodd" clip-rule="evenodd" d="M13.242 38.5325H44.852V35.4945H13.242V38.5325Z" stroke="#5B9DFF"/>
</svg>
