<svg width="56" height="56" viewBox="0 0 56 56" fill="none" xmlns="http://www.w3.org/2000/svg">
<path d="M12.95 41.125C15.4 39.4139 17.8305 38.1014 20.2417 37.1875C22.6528 36.2736 25.2389 35.8167 28 35.8167C30.7611 35.8167 33.3569 36.2736 35.7875 37.1875C38.218 38.1014 40.6583 39.4139 43.1083 41.125C44.8194 39.025 46.0347 36.9056 46.7542 34.7667C47.4736 32.6278 47.8333 30.3722 47.8333 28C47.8333 22.3611 45.9375 17.6458 42.1458 13.8542C38.3542 10.0625 33.6389 8.16667 28 8.16667C22.3611 8.16667 17.6458 10.0625 13.8542 13.8542C10.0625 17.6458 8.16666 22.3611 8.16666 28C8.16666 30.3722 8.5361 32.6278 9.27499 34.7667C10.0139 36.9056 11.2389 39.025 12.95 41.125ZM27.9891 29.75C25.7408 29.75 23.8486 28.9783 22.3125 27.435C20.7764 25.8916 20.0083 23.9958 20.0083 21.7475C20.0083 19.4992 20.78 17.6069 22.3233 16.0708C23.8667 14.5347 25.7625 13.7667 28.0108 13.7667C30.2592 13.7667 32.1514 14.5383 33.6875 16.0817C35.2236 17.625 35.9917 19.5209 35.9917 21.7692C35.9917 24.0175 35.22 25.9097 33.6766 27.4458C32.1333 28.9819 30.2375 29.75 27.9891 29.75ZM28.0273 51.3333C24.8202 51.3333 21.7972 50.7208 18.9583 49.4958C16.1194 48.2708 13.6403 46.5986 11.5208 44.4792C9.40138 42.3597 7.72916 39.8851 6.50416 37.0553C5.27916 34.2255 4.66666 31.2019 4.66666 27.9845C4.66666 24.7671 5.27916 21.7486 6.50416 18.9292C7.72916 16.1097 9.40138 13.6403 11.5208 11.5208C13.6403 9.40139 16.1149 7.72917 18.9447 6.50417C21.7745 5.27917 24.7981 4.66667 28.0155 4.66667C31.2329 4.66667 34.2514 5.27917 37.0708 6.50417C39.8903 7.72917 42.3597 9.40139 44.4792 11.5208C46.5986 13.6403 48.2708 16.1103 49.4958 18.931C50.7208 21.7517 51.3333 24.7656 51.3333 27.9727C51.3333 31.1798 50.7208 34.2028 49.4958 37.0417C48.2708 39.8806 46.5986 42.3597 44.4792 44.4792C42.3597 46.5986 39.8896 48.2708 37.069 49.4958C34.2483 50.7208 31.2344 51.3333 28.0273 51.3333ZM28 47.8333C30.1389 47.8333 32.2292 47.5222 34.2708 46.9C36.3125 46.2778 38.325 45.1889 40.3083 43.6333C38.325 42.2333 36.3028 41.1639 34.2417 40.425C32.1805 39.6861 30.1 39.3167 28 39.3167C25.9 39.3167 23.8194 39.6861 21.7583 40.425C19.6972 41.1639 17.675 42.2333 15.6917 43.6333C17.675 45.1889 19.6875 46.2778 21.7292 46.9C23.7708 47.5222 25.8611 47.8333 28 47.8333ZM28 26.25C29.3222 26.25 30.4014 25.8319 31.2375 24.9958C32.0736 24.1597 32.4917 23.0806 32.4917 21.7583C32.4917 20.4361 32.0736 19.3569 31.2375 18.5208C30.4014 17.6847 29.3222 17.2667 28 17.2667C26.6778 17.2667 25.5986 17.6847 24.7625 18.5208C23.9264 19.3569 23.5083 20.4361 23.5083 21.7583C23.5083 23.0806 23.9264 24.1597 24.7625 24.9958C25.5986 25.8319 26.6778 26.25 28 26.25Z" fill="white"/>
</svg>
